<svg xmlns="http://www.w3.org/2000/svg" xmlns:xlink="http://www.w3.org/1999/xlink" xmlns:lucid="lucid" width="985.85" height="761.79"><g transform="translate(0 0)" lucid:page-tab-id="0_0"><path d="M0 0h985.85v761.8H0z" fill="#fff"/><path d="M30.33 22.92c0-2.76 2.24-5 5-5h532c2.76 0 5 2.24 5 5v38c0 2.77-2.24 5-5 5h-532c-2.76 0-5-2.23-5-5z" fill="none"/><use xlink:href="#a" transform="matrix(1,0,0,1,30.33264150707646,17.924528301886795) translate(0 27.73427672955975)"/><use xlink:href="#b" transform="matrix(1,0,0,1,30.33264150707646,17.924528301886795) translate(53.369038259958074 27.73427672955975)"/><use xlink:href="#c" transform="matrix(1,0,0,1,30.33264150707646,17.924528301886795) translate(130.02544112508735 27.73427672955975)"/><use xlink:href="#d" transform="matrix(1,0,0,1,30.33264150707646,17.924528301886795) translate(223.22676450034942 27.73427672955975)"/><use xlink:href="#e" transform="matrix(1,0,0,1,30.33264150707646,17.924528301886795) translate(267.7268955276031 27.73427672955975)"/><use xlink:href="#f" transform="matrix(1,0,0,1,30.33264150707646,17.924528301886795) translate(279.085320580014 27.73427672955975)"/><path d="M24.33 65.92H950c.06 0 .12-.05.12-.12v-.12" stroke="#999" stroke-width="2" fill="none"/><path d="M950.17 65.67h-.05l-.02-1 1.46-.02z" fill="#999"/><path d="M606.4 22.92c0-2.76 2.25-5 5-5h337.2c2.75 0 5 2.24 5 5v38c0 2.77-2.25 5-5 5H611.4c-2.75 0-5-2.23-5-5z" fill="none"/><use xlink:href="#g" transform="matrix(1,0,0,1,606.4081132051897,17.92452830188679) translate(161.70108315863035 26.9874213836478)"/><use xlink:href="#h" transform="matrix(1,0,0,1,606.4081132051897,17.92452830188679) translate(194.06481481481484 26.9874213836478)"/><use xlink:href="#i" transform="matrix(1,0,0,1,606.4081132051897,17.92452830188679) translate(257.0081236897275 26.9874213836478)"/><use xlink:href="#j" transform="matrix(1,0,0,1,606.4081132051897,17.92452830188679) translate(273.31446540880506 26.9874213836478)"/><path d="M700 585c0-2.76 2.24-5 5-5h200c2.76 0 5 2.24 5 5v126c0 2.76-2.24 5-5 5H705c-2.76 0-5-2.24-5-5z" fill="#fff"/><path d="M700 585c0-2.76 2.24-5 5-5h200c2.76 0 5 2.24 5 5v126c0 2.76-2.24 5-5 5H705c-2.76 0-5-2.24-5-5zM700 620h210M760 620v96" stroke="#999" stroke-width="2" fill="none"/><use xlink:href="#k" transform="matrix(1,0,0,1,710,580) translate(0 23.6)"/><use xlink:href="#l" transform="matrix(1,0,0,1,710,580) translate(43.9 23.6)"/><use xlink:href="#m" transform="matrix(1,0,0,1,705,622.5) translate(0 17.1)"/><use xlink:href="#n" transform="matrix(1,0,0,1,765,622.5) translate(0 17.1)"/><use xlink:href="#o" transform="matrix(1,0,0,1,765,654.5) translate(0 17.1)"/><use xlink:href="#p" transform="matrix(1,0,0,1,765,686.5) translate(0 17.1)"/><path d="M60 105c0-2.76 2.24-5 5-5h250c2.76 0 5 2.24 5 5v190c0 2.76-2.24 5-5 5H65c-2.76 0-5-2.24-5-5z" fill="#fff"/><path d="M60 105c0-2.76 2.24-5 5-5h250c2.76 0 5 2.24 5 5v190c0 2.76-2.24 5-5 5H65c-2.76 0-5-2.24-5-5zM60 140h260M120 140v160" stroke="#999" stroke-width="2" fill="none"/><use xlink:href="#q" transform="matrix(1,0,0,1,70,100) translate(0 23.6)"/><use xlink:href="#l" transform="matrix(1,0,0,1,70,100) translate(30 23.6)"/><use xlink:href="#m" transform="matrix(1,0,0,1,65,142.5) translate(0 17.1)"/><use xlink:href="#r" transform="matrix(1,0,0,1,125,142.5) translate(0 17.1)"/><use xlink:href="#s" transform="matrix(1,0,0,1,125,174.5) translate(0 17.1)"/><use xlink:href="#t" transform="matrix(1,0,0,1,125,206.5) translate(0 17.1)"/><use xlink:href="#u" transform="matrix(1,0,0,1,125,238.5) translate(0 17.1)"/><use xlink:href="#v" transform="matrix(1,0,0,1,125,270.5) translate(0 17.1)"/><path d="M375.92 361c0-2.76 2.24-5 5-5h224c2.77 0 5 2.24 5 5v94c0 2.76-2.23 5-5 5h-224c-2.76 0-5-2.24-5-5z" fill="#fff"/><path d="M375.92 361c0-2.76 2.24-5 5-5h224c2.77 0 5 2.24 5 5v94c0 2.76-2.23 5-5 5h-224c-2.76 0-5-2.24-5-5zM375.92 396h234M435.92 396v64" stroke="#999" stroke-width="2" fill="none"/><use xlink:href="#w" transform="matrix(1,0,0,1,385.92452830188677,356) translate(0 23.6)"/><use xlink:href="#x" transform="matrix(1,0,0,1,385.92452830188677,356) translate(62.80000000000001 23.6)"/><use xlink:href="#y" transform="matrix(1,0,0,1,380.92452830188677,398.5) translate(0 17.1)"/><use xlink:href="#z" transform="matrix(1,0,0,1,440.92452830188677,398.5) translate(0 17.1)"/><use xlink:href="#y" transform="matrix(1,0,0,1,380.92452830188677,430.5) translate(0 17.1)"/><use xlink:href="#A" transform="matrix(1,0,0,1,440.92452830188677,430.5) translate(0 17.1)"/><path d="M321 219.97h166.92c2.77 0 5 2.24 5 5V355" stroke="#000" stroke-width="2" fill="none"/><path fill="#fff"/><path d="M332 229.97h-2v-20h2z"/><path fill="#fff"/><path d="M342 229.97h-2v-20h2z"/><path fill="#fff"/><path d="M502.92 346h-20v-2h20z"/><path d="M502.92 325l-.5 3.16-1.42 2.75-2.17 2.17-2.74 1.42-3.18.5-3.16-.5-2.74-1.43-2.17-2.16-1.42-2.74-.5-3.16.5-3.16 1.42-2.75 2.17-2.17 2.74-1.42 3.16-.5 3.17.5 2.73 1.43 2.17 2.16 1.4 2.74.52 3.16z" fill="#fff"/><path d="M496.4 314.55l3.03 1.56 2.38 2.4 1.58 3.02.53 3.32-.98.16 1 .16-.54 3.32-1.57 3.02-2.37 2.4-3.03 1.55-3.48.56-3.47-.55-3.03-1.56-2.38-2.4-1.57-3.02-.56-3.48.57-3.48 1.57-3.02 2.38-2.4 3.03-1.55 3.47-.56zm-6.32 1.92l-2.46 1.28-1.95 1.94-1.27 2.46-.46 2.84.46 2.84 1.27 2.47 1.95 1.95 2.46 1.28 2.84.46 2.85-.47 2.46-1.28 1.95-1.94 1.27-2.46.46-2.84-.45-2.84-1.27-2.47-1.95-1.95-2.46-1.28-2.85-.46z"/><path d="M492.92 461v54c0 2.76 2.24 5 5 5H800c2.76 0 5 2.24 5 5v54" stroke="#000" stroke-width="2" fill="none"/><path d="M503.82 461.9l-10.9 21.78-10.9-21.8 1.8-.88 9.1 18.2 9.1-18.2z"/><path d="M502.92 491.45l-.5 3.16-1.42 2.75-2.17 2.17-2.74 1.42-3.18.5-3.16-.5-2.74-1.42-2.17-2.17-1.42-2.74-.5-3.15.5-3.16 1.42-2.76 2.17-2.16 2.74-1.42 3.16-.5 3.17.5 2.73 1.42 2.17 2.16 1.4 2.75.52 3.15z" fill="#fff"/><path d="M496.4 481l3.03 1.56 2.38 2.38 1.58 3.03.53 3.32-.98.15 1 .16-.54 3.33-1.57 3.02-2.37 2.38-3.03 1.57-3.48.56-3.47-.56-3.03-1.57-2.38-2.38-1.57-3.02-.56-3.48.57-3.48 1.57-3.03 2.38-2.38 3.03-1.56 3.47-.57zm-6.32 1.92l-2.46 1.27-1.95 1.94-1.27 2.46-.46 2.85.46 2.84 1.27 2.46 1.95 1.94 2.46 1.28 2.84.45 2.85-.45 2.46-1.28 1.95-1.94 1.27-2.47.46-2.85-.45-2.85-1.27-2.46-1.95-1.95-2.46-1.28-2.85-.46zM815.9 578.1l-1.8.9-9.1-18.2-9.1 18.2-1.8-.9 10.9-21.78z"/><path d="M815 548.55l-.5 3.16-1.43 2.76-2.16 2.16-2.74 1.42-3.16.5-3.16-.5-2.75-1.42-2.17-2.16-1.42-2.75-.5-3.15.5-3.16 1.43-2.75 2.16-2.17 2.74-1.42 3.16-.5 3.16.5 2.75 1.42 2.17 2.17 1.42 2.74.5 3.15z" fill="#fff"/><path d="M808.48 538.1l3.02 1.57 2.4 2.38 1.55 3.02.54 3.32-1 .15 1 .16-.55 3.33-1.56 3.03-2.4 2.38-3.02 1.56-3.48.57-3.48-.57-3.02-1.56-2.4-2.38-1.55-3.03-.56-3.48.55-3.48 1.56-3.02 2.4-2.38 3.02-1.57 3.48-.56zm-6.32 1.92l-2.47 1.28-1.95 1.94-1.28 2.47-.46 2.85.47 2.85 1.28 2.46 1.94 1.95 2.46 1.28 2.84.46 2.84-.46 2.47-1.27 1.95-1.94 1.28-2.46.46-2.85-.47-2.84-1.28-2.46-1.94-1.94-2.46-1.28-2.84-.45z"/><defs><path fill="#999" d="M24-248c120-7 223 5 221 122C244-46 201 0 124 0H24v-248zM76-40c74 7 117-18 117-86 0-67-45-88-117-82v168" id="B"/><path fill="#999" d="M199 0l-22-63H83L61 0H9l90-248h61L250 0h-51zm-33-102l-36-108c-10 38-24 72-36 108h72" id="C"/><path fill="#999" d="M136-208V0H84v-208H4v-40h212v40h-80" id="D"/><g id="a"><use transform="matrix(0.05186495457721873,0,0,0.05186495457721873,0,0)" xlink:href="#B"/><use transform="matrix(0.05186495457721873,0,0,0.05186495457721873,13.43302323549965,0)" xlink:href="#C"/><use transform="matrix(0.05186495457721873,0,0,0.05186495457721873,25.465692697414397,0)" xlink:href="#D"/><use transform="matrix(0.05186495457721873,0,0,0.05186495457721873,35.423763976240394,0)" xlink:href="#C"/></g><path fill="#999" d="M24 0v-248h195v40H76v63h132v40H76v65h150V0H24" id="E"/><path fill="#999" d="M169-182c-1-43-94-46-97-3 18 66 151 10 154 114 3 95-165 93-204 36-6-8-10-19-12-30l50-8c3 46 112 56 116 5-17-69-150-10-154-114-4-87 153-88 188-35 5 8 8 18 10 28" id="F"/><path fill="#999" d="M24 0v-248h52V0H24" id="G"/><path fill="#999" d="M67-125c0 54 23 88 75 88 28 0 53-7 68-21v-34h-60v-39h108v91C232-14 192 4 140 4 58 4 20-42 15-125 8-236 126-280 215-234c19 10 29 26 37 47l-47 15c-11-23-29-39-63-39-53 1-75 33-75 86" id="H"/><path fill="#999" d="M175 0L67-191c6 58 2 128 3 191H24v-248h59L193-55c-6-58-2-129-3-193h46V0h-61" id="I"/><g id="b"><use transform="matrix(0.05186495457721873,0,0,0.05186495457721873,0,0)" xlink:href="#B"/><use transform="matrix(0.05186495457721873,0,0,0.05186495457721873,13.43302323549965,0)" xlink:href="#E"/><use transform="matrix(0.05186495457721873,0,0,0.05186495457721873,25.880612334032143,0)" xlink:href="#F"/><use transform="matrix(0.05186495457721873,0,0,0.05186495457721873,38.32820143256464,0)" xlink:href="#G"/><use transform="matrix(0.05186495457721873,0,0,0.05186495457721873,43.514696890286515,0)" xlink:href="#H"/><use transform="matrix(0.05186495457721873,0,0,0.05186495457721873,58.03688417190776,0)" xlink:href="#I"/></g><path fill="#999" d="M24-248c93 1 206-16 204 79-1 75-69 88-152 82V0H24v-248zm52 121c47 0 100 7 100-41 0-47-54-39-100-39v80" id="J"/><path fill="#999" d="M240-174c0 40-23 61-54 70L253 0h-59l-57-94H76V0H24v-248c93 4 217-23 216 74zM76-134c48-2 112 12 112-38 0-48-66-32-112-35v73" id="K"/><path fill="#999" d="M140-251c80 0 125 45 125 126S219 4 139 4C58 4 15-44 15-125s44-126 125-126zm-1 214c52 0 73-35 73-88 0-50-21-86-72-86-52 0-73 35-73 86s22 88 72 88" id="L"/><path fill="#999" d="M176-78C186 10 51 31 16-35c-5-9-9-19-11-32l52-8c4 21 12 37 35 38 23 0 32-16 32-40v-130H75v-41h101v170" id="M"/><path fill="#999" d="M67-125c0 53 21 87 73 88 37 1 54-22 65-47l45 17C233-25 199 4 140 4 58 4 20-42 15-125 8-235 124-281 211-232c18 10 29 29 36 50l-46 12c-8-25-30-41-62-41-52 0-71 34-72 86" id="N"/><g id="c"><use transform="matrix(0.05186495457721873,0,0,0.05186495457721873,0,0)" xlink:href="#J"/><use transform="matrix(0.05186495457721873,0,0,0.05186495457721873,12.447589098532495,0)" xlink:href="#K"/><use transform="matrix(0.05186495457721873,0,0,0.05186495457721873,25.880612334032143,0)" xlink:href="#L"/><use transform="matrix(0.05186495457721873,0,0,0.05186495457721873,40.402799615653386,0)" xlink:href="#M"/><use transform="matrix(0.05186495457721873,0,0,0.05186495457721873,50.77579053109713,0)" xlink:href="#E"/><use transform="matrix(0.05186495457721873,0,0,0.05186495457721873,63.22337962962963,0)" xlink:href="#N"/><use transform="matrix(0.05186495457721873,0,0,0.05186495457721873,76.65640286512928,0)" xlink:href="#D"/></g><g id="d"><use transform="matrix(0.05186495457721873,0,0,0.05186495457721873,0,0)" xlink:href="#E"/><use transform="matrix(0.05186495457721873,0,0,0.05186495457721873,12.447589098532495,0)" xlink:href="#K"/><use transform="matrix(0.05186495457721873,0,0,0.05186495457721873,25.880612334032143,0)" xlink:href="#B"/></g><path fill="#999" d="M14-72v-43h91v43H14" id="O"/><use transform="matrix(0.05186495457721873,0,0,0.05186495457721873,0,0)" xlink:href="#O" id="e"/><path fill="#999" d="M186 0v-106H76V0H24v-248h52v99h110v-99h50V0h-50" id="P"/><path fill="#999" d="M182-182c0 78-84 86-111 141h115V0H12c-6-101 99-100 120-180 1-22-12-31-33-32-23 0-32 14-35 34l-49-3c5-45 32-70 84-70 51 0 83 22 83 69" id="Q"/><path fill="#999" d="M101-251c68 0 84 54 84 127C185-50 166 4 99 4S15-52 14-124c-1-75 17-127 87-127zm-1 216c37-5 36-46 36-89s4-89-36-89c-39 0-36 45-36 89 0 43-3 85 36 89" id="R"/><g id="f"><use transform="matrix(0.05186495457721873,0,0,0.05186495457721873,0,0)" xlink:href="#J"/><use transform="matrix(0.05186495457721873,0,0,0.05186495457721873,12.447589098532495,0)" xlink:href="#P"/><use transform="matrix(0.05186495457721873,0,0,0.05186495457721873,25.880612334032143,0)" xlink:href="#J"/><use transform="matrix(0.05186495457721873,0,0,0.05186495457721873,38.32820143256464,0)" xlink:href="#O"/><use transform="matrix(0.05186495457721873,0,0,0.05186495457721873,44.50013102725367,0)" xlink:href="#N"/><use transform="matrix(0.05186495457721873,0,0,0.05186495457721873,57.93315426275332,0)" xlink:href="#L"/><use transform="matrix(0.05186495457721873,0,0,0.05186495457721873,72.45534154437456,0)" xlink:href="#P"/><use transform="matrix(0.05186495457721873,0,0,0.05186495457721873,85.88836477987421,0)" xlink:href="#L"/><use transform="matrix(0.05186495457721873,0,0,0.05186495457721873,100.41055206149545,0)" xlink:href="#K"/><use transform="matrix(0.05186495457721873,0,0,0.05186495457721873,113.84357529699508,0)" xlink:href="#D"/><use transform="matrix(0.05186495457721873,0,0,0.05186495457721873,124.16470125786161,0)" xlink:href="#O"/><use transform="matrix(0.05186495457721873,0,0,0.05186495457721873,130.33663085255066,0)" xlink:href="#Q"/><use transform="matrix(0.05186495457721873,0,0,0.05186495457721873,140.7096217679944,0)" xlink:href="#R"/></g><path fill="#999" d="M194 0L95-120 63-95V0H30v-248h33v124l119-124h40L117-140 236 0h-42" id="S"/><path fill="#999" d="M33 0v-248h34V0H33" id="T"/><path fill="#999" d="M30 0v-248h187v28H63v79h144v27H63v87h162V0H30" id="U"/><path fill="#999" d="M68-38c1 34 0 65-14 84H32c9-13 17-26 17-46H33v-38h35" id="V"/><g id="g"><use transform="matrix(0.04149196366177498,0,0,0.04149196366177498,0,0)" xlink:href="#S"/><use transform="matrix(0.04149196366177498,0,0,0.04149196366177498,9.958071278825996,0)" xlink:href="#T"/><use transform="matrix(0.04149196366177498,0,0,0.04149196366177498,14.10726764500349,0)" xlink:href="#U"/><use transform="matrix(0.04149196366177498,0,0,0.04149196366177498,24.065338923829486,0)" xlink:href="#V"/></g><path fill="#999" d="M160-131c35 5 61 23 61 61C221 17 115-2 30 0v-248c76 3 177-17 177 60 0 33-19 50-47 57zm-97-11c50-1 110 9 110-42 0-47-63-36-110-37v79zm0 115c55-2 124 14 124-45 0-56-70-42-124-44v89" id="W"/><path fill="#999" d="M233-177c-1 41-23 64-60 70L243 0h-38l-65-103H63V0H30v-248c88 3 205-21 203 71zM63-129c60-2 137 13 137-47 0-61-80-42-137-45v92" id="X"/><path fill="#999" d="M190 0L58-211 59 0H30v-248h39L202-35l-2-213h31V0h-41" id="Y"/><path fill="#999" d="M127-220V0H93v-220H8v-28h204v28h-85" id="Z"/><g id="h"><use transform="matrix(0.04149196366177498,0,0,0.04149196366177498,0,0)" xlink:href="#W"/><use transform="matrix(0.04149196366177498,0,0,0.04149196366177498,9.958071278825996,0)" xlink:href="#X"/><use transform="matrix(0.04149196366177498,0,0,0.04149196366177498,20.704489867225718,0)" xlink:href="#U"/><use transform="matrix(0.04149196366177498,0,0,0.04149196366177498,30.662561146051715,0)" xlink:href="#Y"/><use transform="matrix(0.04149196366177498,0,0,0.04149196366177498,41.408979734451435,0)" xlink:href="#Z"/></g><path fill="#999" d="M32 76v-337h29V76H32" id="aa"/><use transform="matrix(0.04149196366177498,0,0,0.04149196366177498,0,0)" xlink:href="#aa" id="i"/><path fill="#999" d="M27 0v-27h64v-190l-56 39v-29l58-41h29v221h61V0H27" id="ab"/><path fill="#999" d="M54-142c48-35 137-8 131 61C196 18 31 33 14-55l32-4c7 23 22 37 52 37 35-1 51-22 54-58 4-55-73-65-99-34H22l8-134h141v27H59" id="ac"/><path fill="#999" d="M33 0v-38h34V0H33" id="ad"/><path fill="#999" d="M101-251c68 0 85 55 85 127S166 4 100 4C33 4 14-52 14-124c0-73 17-127 87-127zm-1 229c47 0 54-49 54-102s-4-102-53-102c-51 0-55 48-55 102 0 53 5 102 54 102" id="ae"/><path fill="#999" d="M155-56V0h-30v-56H8v-25l114-167h33v167h35v25h-35zm-30-156c-27 46-58 90-88 131h88v-131" id="af"/><path fill="#999" d="M101-251c82-7 93 87 43 132L82-64C71-53 59-42 53-27h129V0H18c2-99 128-94 128-182 0-28-16-43-45-43s-46 15-49 41l-32-3c6-41 34-60 81-64" id="ag"/><path fill="#999" d="M134-131c28 9 52 24 51 62-1 50-34 73-85 73S17-19 16-69c0-36 21-54 49-61-75-25-45-126 34-121 46 3 78 18 79 63 0 33-17 51-44 57zm-34-11c31 1 46-15 46-44 0-28-17-43-47-42-29 0-46 13-45 42 1 28 16 44 46 44zm1 122c35 0 51-18 51-52 0-30-18-46-53-46-33 0-51 17-51 47 0 34 19 51 53 51" id="ah"/><g id="j"><use transform="matrix(0.04149196366177498,0,0,0.04149196366177498,0,0)" xlink:href="#ab"/><use transform="matrix(0.04149196366177498,0,0,0.04149196366177498,8.298392732354996,0)" xlink:href="#ac"/><use transform="matrix(0.04149196366177498,0,0,0.04149196366177498,16.596785464709992,0)" xlink:href="#ad"/><use transform="matrix(0.04149196366177498,0,0,0.04149196366177498,20.74598183088749,0)" xlink:href="#ae"/><use transform="matrix(0.04149196366177498,0,0,0.04149196366177498,29.04437456324249,0)" xlink:href="#af"/><use transform="matrix(0.04149196366177498,0,0,0.04149196366177498,37.34276729559748,0)" xlink:href="#ad"/><use transform="matrix(0.04149196366177498,0,0,0.04149196366177498,41.49196366177498,0)" xlink:href="#ag"/><use transform="matrix(0.04149196366177498,0,0,0.04149196366177498,49.79035639412998,0)" xlink:href="#ae"/><use transform="matrix(0.04149196366177498,0,0,0.04149196366177498,58.08874912648498,0)" xlink:href="#ab"/><use transform="matrix(0.04149196366177498,0,0,0.04149196366177498,66.38714185883997,0)" xlink:href="#ah"/></g><path d="M141-36C126-15 110 5 73 4 37 3 15-17 15-53c-1-64 63-63 125-63 3-35-9-54-41-54-24 1-41 7-42 31l-33-3c5-37 33-52 76-52 45 0 72 20 72 64v82c-1 20 7 32 28 27v20c-31 9-61-2-59-35zM48-53c0 20 12 33 32 33 41-3 63-29 60-74-43 2-92-5-92 41" id="ai"/><path d="M114-163C36-179 61-72 57 0H25l-1-190h30c1 12-1 29 2 39 6-27 23-49 58-41v29" id="aj"/><path d="M59-47c-2 24 18 29 38 22v24C64 9 27 4 27-40v-127H5v-23h24l9-43h21v43h35v23H59v120" id="ak"/><path d="M24-231v-30h32v30H24zM24 0v-190h32V0H24" id="al"/><path d="M135-143c-3-34-86-38-87 0 15 53 115 12 119 90S17 21 10-45l28-5c4 36 97 45 98 0-10-56-113-15-118-90-4-57 82-63 122-42 12 7 21 19 24 35" id="am"/><g id="k"><use transform="matrix(0.05,0,0,0.05,0,0)" xlink:href="#ai"/><use transform="matrix(0.05,0,0,0.05,10,0)" xlink:href="#aj"/><use transform="matrix(0.05,0,0,0.05,15.949999999999998,0)" xlink:href="#ak"/><use transform="matrix(0.05,0,0,0.05,20.95,0)" xlink:href="#al"/><use transform="matrix(0.05,0,0,0.05,24.9,0)" xlink:href="#am"/><use transform="matrix(0.05,0,0,0.05,33.9,0)" xlink:href="#ak"/></g><path d="M87 75C49 33 22-17 22-94c0-76 28-126 65-167h31c-38 41-64 92-64 168S80 34 118 75H87" id="an"/><path d="M100-194c62-1 85 37 85 99 1 63-27 99-86 99S16-35 15-95c0-66 28-99 85-99zM99-20c44 1 53-31 53-75 0-43-8-75-51-75s-53 32-53 75 10 74 51 75" id="ao"/><path d="M117-194c89-4 53 116 60 194h-32v-121c0-31-8-49-39-48C34-167 62-67 57 0H25l-1-190h30c1 10-1 24 2 32 11-22 29-35 61-36" id="ap"/><path d="M177-190C167-65 218 103 67 71c-23-6-38-20-44-43l32-5c15 47 100 32 89-28v-30C133-14 115 1 83 1 29 1 15-40 15-95c0-56 16-97 71-98 29-1 48 16 59 35 1-10 0-23 2-32h30zM94-22c36 0 50-32 50-73 0-42-14-75-50-75-39 0-46 34-46 75s6 73 46 73" id="aq"/><path d="M33-261c38 41 65 92 65 168S71 34 33 75H2C39 34 66-17 66-93S39-220 2-261h31" id="ar"/><g id="l"><use transform="matrix(0.05,0,0,0.05,0,0)" xlink:href="#an"/><use transform="matrix(0.05,0,0,0.05,5.95,0)" xlink:href="#am"/><use transform="matrix(0.05,0,0,0.05,14.949999999999998,0)" xlink:href="#ak"/><use transform="matrix(0.05,0,0,0.05,19.95,0)" xlink:href="#aj"/><use transform="matrix(0.05,0,0,0.05,25.899999999999995,0)" xlink:href="#ao"/><use transform="matrix(0.05,0,0,0.05,35.9,0)" xlink:href="#ap"/><use transform="matrix(0.05,0,0,0.05,45.9,0)" xlink:href="#aq"/><use transform="matrix(0.05,0,0,0.05,55.900000000000006,0)" xlink:href="#ar"/></g><path d="M30-248c87 1 191-15 191 75 0 78-77 80-158 76V0H30v-248zm33 125c57 0 124 11 124-50 0-59-68-47-124-48v98" id="as"/><path d="M194 0L95-120 63-95V0H30v-248h33v124l119-124h40L117-140 236 0h-42" id="at"/><g id="m"><use transform="matrix(0.05,0,0,0.05,0,0)" xlink:href="#as"/><use transform="matrix(0.05,0,0,0.05,12,0)" xlink:href="#at"/></g><path d="M33 0v-248h34V0H33" id="au"/><path d="M85-194c31 0 48 13 60 33l-1-100h32l1 261h-30c-2-10 0-23-3-31C134-8 116 4 85 4 32 4 16-35 15-94c0-66 23-100 70-100zm9 24c-40 0-46 34-46 75 0 40 6 74 45 74 42 0 51-32 51-76 0-42-9-74-50-73" id="av"/><g id="n"><use transform="matrix(0.05,0,0,0.05,0,0)" xlink:href="#ai"/><use transform="matrix(0.05,0,0,0.05,10,0)" xlink:href="#aj"/><use transform="matrix(0.05,0,0,0.05,15.949999999999998,0)" xlink:href="#ak"/><use transform="matrix(0.05,0,0,0.05,20.95,0)" xlink:href="#al"/><use transform="matrix(0.05,0,0,0.05,24.9,0)" xlink:href="#am"/><use transform="matrix(0.05,0,0,0.05,33.9,0)" xlink:href="#ak"/><use transform="matrix(0.05,0,0,0.05,38.9,0)" xlink:href="#au"/><use transform="matrix(0.05,0,0,0.05,43.9,0)" xlink:href="#av"/></g><path d="M143 4C61 4 22-44 18-125c-5-107 100-154 193-111 17 8 29 25 37 43l-32 9c-13-25-37-40-76-40-61 0-88 39-88 99 0 61 29 100 91 101 35 0 62-11 79-27v-45h-74v-28h105v86C228-13 192 4 143 4" id="aw"/><path d="M100-194c63 0 86 42 84 106H49c0 40 14 67 53 68 26 1 43-12 49-29l28 8c-11 28-37 45-77 45C44 4 14-33 15-96c1-61 26-98 85-98zm52 81c6-60-76-77-97-28-3 7-6 17-6 28h103" id="ax"/><g id="o"><use transform="matrix(0.05,0,0,0.05,0,0)" xlink:href="#ai"/><use transform="matrix(0.05,0,0,0.05,10,0)" xlink:href="#aj"/><use transform="matrix(0.05,0,0,0.05,15.949999999999998,0)" xlink:href="#ak"/><use transform="matrix(0.05,0,0,0.05,20.95,0)" xlink:href="#al"/><use transform="matrix(0.05,0,0,0.05,24.9,0)" xlink:href="#am"/><use transform="matrix(0.05,0,0,0.05,33.9,0)" xlink:href="#ak"/><use transform="matrix(0.05,0,0,0.05,38.9,0)" xlink:href="#aw"/><use transform="matrix(0.05,0,0,0.05,52.900000000000006,0)" xlink:href="#ax"/><use transform="matrix(0.05,0,0,0.05,62.900000000000006,0)" xlink:href="#ap"/><use transform="matrix(0.05,0,0,0.05,72.9,0)" xlink:href="#aj"/><use transform="matrix(0.05,0,0,0.05,78.85000000000001,0)" xlink:href="#ax"/></g><path d="M190 0L58-211 59 0H30v-248h39L202-35l-2-213h31V0h-41" id="ay"/><path d="M210-169c-67 3-38 105-44 169h-31v-121c0-29-5-50-35-48C34-165 62-65 56 0H25l-1-190h30c1 10-1 24 2 32 10-44 99-50 107 0 11-21 27-35 58-36 85-2 47 119 55 194h-31v-121c0-29-5-49-35-48" id="az"/><g id="p"><use transform="matrix(0.05,0,0,0.05,0,0)" xlink:href="#ai"/><use transform="matrix(0.05,0,0,0.05,10,0)" xlink:href="#aj"/><use transform="matrix(0.05,0,0,0.05,15.949999999999998,0)" xlink:href="#ak"/><use transform="matrix(0.05,0,0,0.05,20.95,0)" xlink:href="#al"/><use transform="matrix(0.05,0,0,0.05,24.9,0)" xlink:href="#am"/><use transform="matrix(0.05,0,0,0.05,33.9,0)" xlink:href="#ak"/><use transform="matrix(0.05,0,0,0.05,38.9,0)" xlink:href="#ay"/><use transform="matrix(0.05,0,0,0.05,51.85,0)" xlink:href="#ai"/><use transform="matrix(0.05,0,0,0.05,61.85,0)" xlink:href="#az"/><use transform="matrix(0.05,0,0,0.05,76.8,0)" xlink:href="#ax"/></g><path d="M101-234c-31-9-42 10-38 44h38v23H63V0H32v-167H5v-23h27c-7-52 17-82 69-68v24" id="aA"/><g id="q"><use transform="matrix(0.05,0,0,0.05,0,0)" xlink:href="#aA"/><use transform="matrix(0.05,0,0,0.05,5,0)" xlink:href="#ai"/><use transform="matrix(0.05,0,0,0.05,15,0)" xlink:href="#ap"/></g><g id="r"><use transform="matrix(0.05,0,0,0.05,0,0)" xlink:href="#aA"/><use transform="matrix(0.05,0,0,0.05,5,0)" xlink:href="#ai"/><use transform="matrix(0.05,0,0,0.05,15,0)" xlink:href="#ap"/><use transform="matrix(0.05,0,0,0.05,25,0)" xlink:href="#au"/><use transform="matrix(0.05,0,0,0.05,30,0)" xlink:href="#av"/></g><path d="M205 0l-28-72H64L36 0H1l101-248h38L239 0h-34zm-38-99l-47-123c-12 45-31 82-46 123h93" id="aB"/><path d="M96-169c-40 0-48 33-48 73s9 75 48 75c24 0 41-14 43-38l32 2c-6 37-31 61-74 61-59 0-76-41-82-99-10-93 101-131 147-64 4 7 5 14 7 22l-32 3c-4-21-16-35-41-35" id="aC"/><path d="M108 0H70L1-190h34L89-25l56-165h34" id="aD"/><path d="M127-220V0H93v-220H8v-28h204v28h-85" id="aE"/><path d="M143 0L79-87 56-68V0H24v-261h32v163l83-92h37l-77 82L181 0h-38" id="aF"/><g id="s"><use transform="matrix(0.05,0,0,0.05,0,0)" xlink:href="#aA"/><use transform="matrix(0.05,0,0,0.05,5,0)" xlink:href="#ai"/><use transform="matrix(0.05,0,0,0.05,15,0)" xlink:href="#ap"/><use transform="matrix(0.05,0,0,0.05,25,0)" xlink:href="#aB"/><use transform="matrix(0.05,0,0,0.05,37,0)" xlink:href="#aC"/><use transform="matrix(0.05,0,0,0.05,46,0)" xlink:href="#ak"/><use transform="matrix(0.05,0,0,0.05,51,0)" xlink:href="#al"/><use transform="matrix(0.05,0,0,0.05,54.95,0)" xlink:href="#aD"/><use transform="matrix(0.05,0,0,0.05,63.95,0)" xlink:href="#ai"/><use transform="matrix(0.05,0,0,0.05,73.95,0)" xlink:href="#ak"/><use transform="matrix(0.05,0,0,0.05,78.95,0)" xlink:href="#al"/><use transform="matrix(0.05,0,0,0.05,82.9,0)" xlink:href="#ao"/><use transform="matrix(0.05,0,0,0.05,92.9,0)" xlink:href="#ap"/><use transform="matrix(0.05,0,0,0.05,102.9,0)" xlink:href="#aE"/><use transform="matrix(0.05,0,0,0.05,111.85000000000001,0)" xlink:href="#ao"/><use transform="matrix(0.05,0,0,0.05,121.85000000000001,0)" xlink:href="#aF"/><use transform="matrix(0.05,0,0,0.05,130.85000000000002,0)" xlink:href="#ax"/><use transform="matrix(0.05,0,0,0.05,140.85000000000002,0)" xlink:href="#ap"/></g><path d="M30 0v-248h187v28H63v79h144v27H63v87h162V0H30" id="aG"/><path d="M24 0v-261h32V0H24" id="aH"/><g id="t"><use transform="matrix(0.05,0,0,0.05,0,0)" xlink:href="#aA"/><use transform="matrix(0.05,0,0,0.05,5,0)" xlink:href="#ai"/><use transform="matrix(0.05,0,0,0.05,15,0)" xlink:href="#ap"/><use transform="matrix(0.05,0,0,0.05,25,0)" xlink:href="#aG"/><use transform="matrix(0.05,0,0,0.05,37,0)" xlink:href="#az"/><use transform="matrix(0.05,0,0,0.05,51.95,0)" xlink:href="#ai"/><use transform="matrix(0.05,0,0,0.05,61.95,0)" xlink:href="#al"/><use transform="matrix(0.05,0,0,0.05,65.9,0)" xlink:href="#aH"/></g><path d="M197 0v-115H63V0H30v-248h33v105h134v-105h34V0h-34" id="aI"/><path d="M106-169C34-169 62-67 57 0H25v-261h32l-1 103c12-21 28-36 61-36 89 0 53 116 60 194h-32v-121c2-32-8-49-39-48" id="aJ"/><g id="u"><use transform="matrix(0.05,0,0,0.05,0,0)" xlink:href="#aA"/><use transform="matrix(0.05,0,0,0.05,5,0)" xlink:href="#ai"/><use transform="matrix(0.05,0,0,0.05,15,0)" xlink:href="#ap"/><use transform="matrix(0.05,0,0,0.05,25,0)" xlink:href="#aI"/><use transform="matrix(0.05,0,0,0.05,37.95,0)" xlink:href="#ai"/><use transform="matrix(0.05,0,0,0.05,47.95,0)" xlink:href="#am"/><use transform="matrix(0.05,0,0,0.05,56.95,0)" xlink:href="#aJ"/></g><path d="M232-93c-1 65-40 97-104 97C67 4 28-28 28-90v-158h33c8 89-33 224 67 224 102 0 64-133 71-224h33v155" id="aK"/><g id="v"><use transform="matrix(0.05,0,0,0.05,0,0)" xlink:href="#aA"/><use transform="matrix(0.05,0,0,0.05,5,0)" xlink:href="#ai"/><use transform="matrix(0.05,0,0,0.05,15,0)" xlink:href="#ap"/><use transform="matrix(0.05,0,0,0.05,25,0)" xlink:href="#aK"/><use transform="matrix(0.05,0,0,0.05,37.95,0)" xlink:href="#am"/><use transform="matrix(0.05,0,0,0.05,46.95,0)" xlink:href="#ax"/><use transform="matrix(0.05,0,0,0.05,56.95,0)" xlink:href="#aj"/><use transform="matrix(0.05,0,0,0.05,62.900000000000006,0)" xlink:href="#ap"/><use transform="matrix(0.05,0,0,0.05,72.9,0)" xlink:href="#ai"/><use transform="matrix(0.05,0,0,0.05,82.9,0)" xlink:href="#az"/><use transform="matrix(0.05,0,0,0.05,97.85000000000001,0)" xlink:href="#ax"/></g><path d="M206 0h-36l-40-164L89 0H53L-1-190h32L70-26l43-164h34l41 164 42-164h31" id="aL"/><g id="w"><use transform="matrix(0.05,0,0,0.05,0,0)" xlink:href="#aL"/><use transform="matrix(0.05,0,0,0.05,12.950000000000001,0)" xlink:href="#al"/><use transform="matrix(0.05,0,0,0.05,16.900000000000002,0)" xlink:href="#am"/><use transform="matrix(0.05,0,0,0.05,25.900000000000002,0)" xlink:href="#aJ"/><use transform="matrix(0.05,0,0,0.05,35.900000000000006,0)" xlink:href="#aH"/><use transform="matrix(0.05,0,0,0.05,39.85000000000001,0)" xlink:href="#al"/><use transform="matrix(0.05,0,0,0.05,43.80000000000001,0)" xlink:href="#am"/><use transform="matrix(0.05,0,0,0.05,52.80000000000001,0)" xlink:href="#ak"/></g><g id="x"><use transform="matrix(0.05,0,0,0.05,0,0)" xlink:href="#an"/><use transform="matrix(0.05,0,0,0.05,5.95,0)" xlink:href="#aL"/><use transform="matrix(0.05,0,0,0.05,18.900000000000002,0)" xlink:href="#ax"/><use transform="matrix(0.05,0,0,0.05,28.900000000000002,0)" xlink:href="#ai"/><use transform="matrix(0.05,0,0,0.05,38.900000000000006,0)" xlink:href="#aF"/><use transform="matrix(0.05,0,0,0.05,47.900000000000006,0)" xlink:href="#ar"/></g><path d="M63-220v92h138v28H63V0H30v-248h175v28H63" id="aM"/><g id="y"><use transform="matrix(0.05,0,0,0.05,0,0)" xlink:href="#aM"/><use transform="matrix(0.05,0,0,0.05,10.950000000000001,0)" xlink:href="#at"/></g><g id="z"><use transform="matrix(0.05,0,0,0.05,0,0)" xlink:href="#aL"/><use transform="matrix(0.05,0,0,0.05,12.950000000000001,0)" xlink:href="#al"/><use transform="matrix(0.05,0,0,0.05,16.900000000000002,0)" xlink:href="#am"/><use transform="matrix(0.05,0,0,0.05,25.900000000000002,0)" xlink:href="#aJ"/><use transform="matrix(0.05,0,0,0.05,35.900000000000006,0)" xlink:href="#aH"/><use transform="matrix(0.05,0,0,0.05,39.85000000000001,0)" xlink:href="#al"/><use transform="matrix(0.05,0,0,0.05,43.80000000000001,0)" xlink:href="#am"/><use transform="matrix(0.05,0,0,0.05,52.80000000000001,0)" xlink:href="#ak"/><use transform="matrix(0.05,0,0,0.05,57.80000000000001,0)" xlink:href="#aB"/><use transform="matrix(0.05,0,0,0.05,69.80000000000001,0)" xlink:href="#aj"/><use transform="matrix(0.05,0,0,0.05,75.75000000000001,0)" xlink:href="#ak"/><use transform="matrix(0.05,0,0,0.05,80.75000000000001,0)" xlink:href="#al"/><use transform="matrix(0.05,0,0,0.05,84.70000000000002,0)" xlink:href="#am"/><use transform="matrix(0.05,0,0,0.05,93.70000000000002,0)" xlink:href="#ak"/><use transform="matrix(0.05,0,0,0.05,98.70000000000002,0)" xlink:href="#au"/><use transform="matrix(0.05,0,0,0.05,103.7,0)" xlink:href="#av"/></g><g id="A"><use transform="matrix(0.05,0,0,0.05,0,0)" xlink:href="#aL"/><use transform="matrix(0.05,0,0,0.05,12.950000000000001,0)" xlink:href="#al"/><use transform="matrix(0.05,0,0,0.05,16.900000000000002,0)" xlink:href="#am"/><use transform="matrix(0.05,0,0,0.05,25.900000000000002,0)" xlink:href="#aJ"/><use transform="matrix(0.05,0,0,0.05,35.900000000000006,0)" xlink:href="#aH"/><use transform="matrix(0.05,0,0,0.05,39.85000000000001,0)" xlink:href="#al"/><use transform="matrix(0.05,0,0,0.05,43.80000000000001,0)" xlink:href="#am"/><use transform="matrix(0.05,0,0,0.05,52.80000000000001,0)" xlink:href="#ak"/><use transform="matrix(0.05,0,0,0.05,57.80000000000001,0)" xlink:href="#aM"/><use transform="matrix(0.05,0,0,0.05,68.75000000000001,0)" xlink:href="#ai"/><use transform="matrix(0.05,0,0,0.05,78.75000000000001,0)" xlink:href="#ap"/><use transform="matrix(0.05,0,0,0.05,88.75000000000001,0)" xlink:href="#au"/><use transform="matrix(0.05,0,0,0.05,93.75000000000001,0)" xlink:href="#av"/></g></defs></g></svg>